<?xml version="1.0" encoding="UTF-8" standalone="no"?>
<svg
   version="1.1"
   width="90"
   height="64"
   id="svg5"
   sodipodi:docname="pluginIcon_dark.svg"
   inkscape:version="1.3 (0e150ed6c4, 2023-07-21)"
   xmlns:inkscape="http://www.inkscape.org/namespaces/inkscape"
   xmlns:sodipodi="http://sodipodi.sourceforge.net/DTD/sodipodi-0.dtd"
   xmlns="http://www.w3.org/2000/svg"
   xmlns:svg="http://www.w3.org/2000/svg">
  <defs
     id="defs5" />
  <sodipodi:namedview
     id="namedview5"
     pagecolor="#ffffff"
     bordercolor="#000000"
     borderopacity="0.25"
     inkscape:showpageshadow="2"
     inkscape:pageopacity="0.0"
     inkscape:pagecheckerboard="0"
     inkscape:deskcolor="#d1d1d1"
     inkscape:zoom="1.972"
     inkscape:cx="118.91481"
     inkscape:cy="78.346856"
     inkscape:window-width="1366"
     inkscape:window-height="699"
     inkscape:window-x="0"
     inkscape:window-y="0"
     inkscape:window-maximized="1"
     inkscape:current-layer="svg5" />
  <!--<path d="M0 0 C82.5 0 165 0 250 0 C250 82.5 250 165 250 250 C167.5 250 85 250 0 250 C0 167.5 0 85 0 0 Z " fill="#000000" transform="translate(0,0)"/>-->
  <path
     d="m 22.325569,0.01463138 c 0.295987,8.7102e-4 0.591976,0.0017001 0.896933,0.0026 0.334494,2.899e-5 0.66899,5.902e-5 1.013621,8.901e-5 0.363527,0.002 0.727053,0.004 1.101594,0.0061001 0.555501,8.3297e-4 0.555501,8.3297e-4 1.122222,0.0017001 1.187944,0.0021999 2.375859,0.0070999 3.563795,0.01210988 0.803253,0.002 1.606506,0.0037998 2.409761,0.0054 1.973654,0.0043001 3.947292,0.01090989 5.920936,0.01915001 1.035089,5.64413252 1.780168,11.32144152 2.515821,17.01422352 0.177322,1.370156 0.355049,2.740249 0.534149,4.110159 0.110532,0.845462 0.220036,1.691064 0.328404,2.536825 0.04951,0.37891 0.09903,0.757815 0.150043,1.148202 0.04294,0.332666 0.0859,0.665328 0.130134,1.008071 0.127716,0.922759 0.127716,0.922759 0.518663,2.03289 1.095783,-2.751965 2.08195,-5.529088 3.012756,-8.344691 0.280583,-0.841731 0.56119,-1.683453 0.841822,-2.525165 0.434552,-1.307095 0.86863,-2.614356 1.302137,-3.921824 0.423319,-1.275548 0.848456,-2.550441 1.273763,-3.825286 C 49.152091,8.719441 49.152091,8.719441 49.345899,8.1320666 50.260693,5.3936401 51.30077,2.7243389 52.405063,0.06178047 64.941141,-0.00311955 77.466836,0.17976247 90,0.45403952 89.541728,1.9881038 89.082769,3.5219492 88.623229,5.0556103 c -0.155561,0.519507 -0.31095,1.0390691 -0.466151,1.5586923 -0.225793,0.7558779 -0.452266,1.5115398 -0.678837,2.2671712 -0.135221,0.4519209 -0.27045,0.9038432 -0.409778,1.3694572 -0.647452,2.102245 -1.329808,4.192867 -2.005176,6.285718 -7.143036,0 -14.286073,0 -21.645567,0 -0.375948,1.423899 -0.751897,2.847797 -1.139239,4.314848 -0.291768,0.926993 -0.594395,1.850464 -0.9108,2.768795 -0.0863,0.252115 -0.172592,0.50423 -0.261506,0.76398 -0.288274,0.841402 -0.578579,1.682041 -0.868834,2.522719 -0.438749,1.278177 -0.876442,2.556737 -1.314281,3.835247 -0.119954,0.349779 -0.23991,0.699556 -0.363498,1.059929 -1.00203,2.924492 -1.994076,5.85254 -2.98343,8.781624 -0.26699,0.790427 -0.534084,1.580807 -0.80121,2.371182 -1.069455,3.164428 -1.069455,3.164428 -2.137594,6.329335 -0.341443,1.012361 -0.683305,2.024568 -1.025631,3.036611 -0.313866,0.9279 -0.627161,1.856011 -0.93975,2.78437 -1.013172,2.991712 -2.100881,5.933152 -3.203594,8.894669 -5.513922,0 -11.027847,0 -16.70886,0 -0.375949,-2.718348 -0.751899,-5.4367 -1.13924,-8.237429 -0.274844,-1.72296 -0.274844,-1.72296 -0.557753,-3.444522 -0.331983,-2.077677 -0.622313,-4.16189 -0.918679,-6.245284 -0.254693,-1.772412 -0.535272,-3.5316 -0.873252,-5.289557 -0.339616,-1.832308 -0.367681,-3.554983 -0.308544,-5.418074 -0.250633,0 -0.501266,0 -0.759494,0 -0.04788,0.277231 -0.09576,0.55446 -0.145111,0.840095 -0.243296,1.162579 -0.575557,2.245738 -0.950833,3.370081 -0.147125,0.442681 -0.29425,0.885363 -0.445832,1.341463 -0.239108,0.712833 -0.239108,0.712833 -0.483045,1.440065 -0.16618,0.497857 -0.332278,0.995738 -0.498297,1.493653 -0.348133,1.04318 -0.697121,2.086052 -1.046743,3.128702 -0.444471,1.325677 -0.887035,2.652027 -1.328971,3.978606 -0.343025,1.029068 -0.686981,2.057807 -1.031214,3.086452 -0.241898,0.723281 -0.483115,1.446802 -0.724314,2.170329 -0.150716,0.448863 -0.301431,0.897731 -0.456714,1.360204 -0.130402,0.389537 -0.26081,0.779076 -0.395167,1.180427 -0.624628,1.763071 -1.312412,3.501672 -1.987428,5.244811 -5.513925,0 -11.0278497,0 -16.708862,0 1.2819858,-4.414083 1.2819858,-4.414083 1.8633182,-6.157582 0.131386,-0.395156 0.2627715,-0.790311 0.3981387,-1.197447 0.1397461,-0.4176 0.2794915,-0.835214 0.423472,-1.265472 0.2240746,-0.672237 0.2240746,-0.672237 0.4526761,-1.358069 0.4040571,-1.211196 0.8088635,-2.422123 1.2141574,-3.632876 0.2547395,-0.761218 0.5091858,-1.522541 0.7635554,-2.28389 2.539116,-7.598445 5.1141252,-15.183217 7.7235742,-22.75623 1.377672,-4.000122 2.743515,-8.004071 4.08951,-12.015701 0.14183,-0.422574 0.283659,-0.845148 0.429789,-1.280527 C 18.040798,10.017168 18.72179,7.9815895 19.400835,5.9453014 19.642729,5.2227042 19.884644,4.500115 20.126581,3.777535 20.237,3.4447191 20.34743,3.111903 20.461202,2.769002 21.362737,0.08142244 21.362737,0.08142244 22.325569,0.01463138 Z"
     fill="#fdb32d"
     id="path1"
     style="stroke-width:0.385952" />
  <path
     d="m 54.462181,0.00734737 c 0.297251,7.7804e-4 0.594498,0.0016 0.900753,0.0024 0.313986,-5.1796e-4 0.627968,-10e-4 0.951465,-0.0016 1.054497,-7.6496e-4 2.108956,0.0018 3.163449,0.0046 0.361002,3.4801e-4 0.722008,6.96e-4 1.093952,0.0011001 C 70.382768,0.02478747 80.191583,0.2394375 90,0.45408555 89.541728,1.9881497 89.082769,3.5219949 88.623229,5.0556561 c -0.155561,0.5195071 -0.31095,1.0390694 -0.466151,1.5586922 -0.225793,0.7558779 -0.452266,1.5115403 -0.678837,2.2671713 -0.135221,0.4519211 -0.27045,0.903843 -0.409778,1.3694574 -0.647452,2.102245 -1.329808,4.192869 -2.005176,6.285718 -7.143036,0 -14.286073,0 -21.645567,0 -0.375948,1.4239 -0.751897,2.847798 -1.139239,4.314848 -0.291768,0.926995 -0.594395,1.850464 -0.9108,2.768794 -0.0863,0.252115 -0.172592,0.50423 -0.261506,0.76398 -0.288274,0.841401 -0.578579,1.682042 -0.868834,2.522719 -0.438749,1.278177 -0.876442,2.55674 -1.314281,3.835246 -0.119954,0.349779 -0.23991,0.699558 -0.363498,1.059935 -1.00203,2.924488 -1.994076,5.852538 -2.98343,8.781619 -0.26699,0.790426 -0.534084,1.580811 -0.80121,2.371182 -1.069455,3.164431 -1.069455,3.164431 -2.137594,6.329336 -0.341443,1.012359 -0.683305,2.024568 -1.025631,3.036612 -0.313866,0.927893 -0.627161,1.856003 -0.93975,2.784363 -1.013172,2.991712 -2.100881,5.933152 -3.203594,8.894671 -5.388606,0 -10.777214,0 -16.329112,0 0.427205,-3.530263 0.427205,-3.530263 0.949181,-5.029738 0.173848,-0.506924 0.173848,-0.506924 0.351209,-1.024096 0.125986,-0.357026 0.251967,-0.714057 0.38177,-1.081897 0.131386,-0.380359 0.262766,-0.760707 0.398131,-1.152591 0.427133,-1.234439 0.858555,-2.467227 1.28996,-3.700079 0.297893,-0.859 0.595465,-1.718123 0.892722,-2.577359 0.726687,-2.098851 1.456401,-4.196557 2.187136,-6.293904 0.853303,-2.451005 1.700351,-4.904295 2.545143,-7.358445 0.16053,-0.465827 0.321061,-0.931654 0.486459,-1.411596 1.538518,-4.483172 3.019835,-8.986158 4.502886,-13.489152 1.523504,-4.624369 3.059602,-9.243769 4.62922,-13.8516835 0.20047,-0.5885804 0.400569,-1.1772941 0.600286,-1.7661465 0.27382,-0.8067309 0.549115,-1.612906 0.824959,-2.4189012 0.155083,-0.4543231 0.310169,-0.9086463 0.469954,-1.376736 0.628349,-1.68909936 1.128551,-1.45262333 2.813924,-1.46030435 z"
     fill="#feb42d"
     id="path2"
     style="stroke-width:0.385952" />
  <path
     d="M 37.974683,0.45406146 C 38.9823,1.4948777 38.936456,2.1778557 39.12208,3.6308209 c 0.06591,0.5028101 0.131836,1.0056192 0.199751,1.5236664 0.06914,0.5517968 0.138291,1.1035939 0.207442,1.6553921 0.07338,0.564933 0.147101,1.129818 0.221162,1.694656 0.194664,1.4896689 0.385855,2.9797866 0.575947,4.4700826 0.303642,2.379874 0.610314,4.759309 0.921142,7.138192 0.107522,0.829305 0.212213,1.658954 0.31672,2.488671 0.06591,0.507754 0.131836,1.015507 0.199751,1.538651 0.05675,0.445356 0.11347,0.89071 0.171929,1.349563 0.187541,1.265738 0.187541,1.265738 0.637616,2.510532 0.468607,1.510073 0.09261,2.184557 -0.501745,3.633812 -0.219019,0.557913 -0.436307,1.116553 -0.652319,1.675717 -0.124383,0.319386 -0.248767,0.638772 -0.376917,0.967837 -0.829584,2.202315 -1.5692,4.438698 -2.323215,6.669527 -0.172926,0.509823 -0.345919,1.019623 -0.518978,1.529399 -0.354824,1.045625 -0.709138,2.091434 -1.063055,3.137388 -0.449912,1.329444 -0.901295,2.658351 -1.353072,3.987121 -0.35385,1.041398 -0.706817,2.083117 -1.059544,3.124926 -0.24511,0.723375 -0.491015,1.446465 -0.736948,2.169543 -1.018282,3.014605 -1.960387,6.046304 -2.848506,9.104483 -0.125312,0 -0.250634,0 -0.379748,0 -0.03053,-0.22488 -0.06108,-0.449769 -0.09253,-0.681471 -0.747119,-5.508988 -0.747119,-5.508988 -1.604467,-11.000483 -0.33198,-2.077696 -0.622308,-4.161909 -0.918676,-6.245303 -0.254692,-1.772412 -0.535271,-3.5316 -0.87325,-5.289557 -0.339618,-1.832308 -0.367681,-3.554983 -0.308545,-5.418074 -0.250632,-0.129434 -0.501265,-0.258891 -0.759493,-0.392258 0.221751,-0.615877 0.221751,-0.615877 0.447983,-1.244197 2.876258,-8.012166 5.667322,-16.05136 8.262182,-24.1657643 0.97699,-3.0535712 1.987136,-6.0904576 3.061986,-9.10881124 z"
     fill="#fa8713"
     id="path3"
     style="stroke-width:0.385952" />
  <path
     d="m 62.386401,22.373383 c 0.383688,8.67e-4 0.767377,0.0016 1.162694,0.0025 0.649996,4.3e-5 0.649996,4.3e-5 1.313125,9e-5 0.47151,0.002 0.943022,0.0042 1.428821,0.006 0.719863,8.32e-4 0.719863,8.32e-4 1.454267,0.0016 1.277951,0.0017 2.555875,0.0054 3.833818,0.0097 1.303215,0.0042 2.60643,0.0055 3.909645,0.0079 2.558607,0.0042 5.117192,0.0109 7.675786,0.01914 -0.458378,1.53403 -0.917231,3.067909 -1.376773,4.601569 -0.155559,0.519508 -0.310949,1.03907 -0.466154,1.558694 -0.225793,0.755877 -0.45226,1.511539 -0.67883,2.267172 -0.135229,0.451919 -0.270458,0.903843 -0.409786,1.369457 -0.647446,2.102243 -1.329805,4.192866 -2.005165,6.285718 -7.268357,0 -14.53671,0 -22.025317,0 0.344847,-1.781044 0.829123,-3.432401 1.400315,-5.142267 0.09972,-0.301026 0.199417,-0.602053 0.302145,-0.912201 0.21008,-0.633186 0.420764,-1.266157 0.632017,-1.898925 0.32427,-0.972052 0.64603,-1.944967 0.967538,-2.917997 0.204559,-0.615514 0.409261,-1.230972 0.614124,-1.846375 0.144789,-0.438196 0.144789,-0.438196 0.292504,-0.885241 0.825805,-2.464268 0.825805,-2.464268 1.975226,-2.526774 z"
     fill="#075b9c"
     id="path4"
     style="stroke-width:0.385952" />
  <path
     d="m 68.734177,0.45406146 c 7.01772,0 14.035444,0 21.265823,0 -0.798889,2.66981144 -0.798889,2.66981144 -1.613929,5.39355774 -0.164602,0.5510281 -0.329196,1.1020561 -0.498788,1.6697815 -0.134984,0.4501519 -0.269959,0.9003027 -0.409042,1.3640947 -0.202836,0.6778823 -0.202836,0.6778823 -0.409778,1.3694576 -0.647452,2.102244 -1.329808,4.192865 -2.005176,6.285718 -7.143036,0 -14.286073,0 -21.645567,0 0.595255,-1.852687 1.190507,-3.705374 1.803798,-5.614204 0.184425,-0.575078 0.368853,-1.1501553 0.558867,-1.7426594 0.150401,-0.4670591 0.300808,-0.9341182 0.455767,-1.4153299 0.15114,-0.4704094 0.302278,-0.9408172 0.457999,-1.4254816 0.65409,-1.9710259 1.350679,-3.9267704 2.040026,-5.88493464 z"
     fill="#5cc7f6"
     id="path5"
     style="stroke-width:0.385952" />
</svg>
