<?xml version="1.0" encoding="UTF-8" standalone="no"?>
<svg
   version="1.1"
   width="64"
   height="44"
   id="svg5"
   sodipodi:docname="pluginIcon.svg"
   inkscape:version="1.3 (0e150ed6c4, 2023-07-21)"
   xmlns:inkscape="http://www.inkscape.org/namespaces/inkscape"
   xmlns:sodipodi="http://sodipodi.sourceforge.net/DTD/sodipodi-0.dtd"
   xmlns="http://www.w3.org/2000/svg"
   xmlns:svg="http://www.w3.org/2000/svg">
  <defs
     id="defs5" />
  <sodipodi:namedview
     id="namedview5"
     pagecolor="#ffffff"
     bordercolor="#000000"
     borderopacity="0.25"
     inkscape:showpageshadow="2"
     inkscape:pageopacity="0.0"
     inkscape:pagecheckerboard="0"
     inkscape:deskcolor="#d1d1d1"
     inkscape:zoom="1.972"
     inkscape:cx="118.91481"
     inkscape:cy="78.346856"
     inkscape:window-width="1366"
     inkscape:window-height="699"
     inkscape:window-x="0"
     inkscape:window-y="0"
     inkscape:window-maximized="1"
     inkscape:current-layer="svg5" />
  <!--<path d="M0 0 C82.5 0 165 0 250 0 C250 82.5 250 165 250 250 C167.5 250 85 250 0 250 C0 167.5 0 85 0 0 Z " fill="#000000" transform="translate(0,0)"/>-->
  <path
     d="m 15.87596,0.01005912 c 0.21048,5.9883e-4 0.420961,0.0011688 0.637819,0.0017875 0.237863,1.993e-5 0.475727,4.057e-5 0.720798,6.119e-5 0.258507,0.001375 0.517015,0.00275 0.783355,0.0041938 0.395023,5.7268e-4 0.395023,5.7268e-4 0.798025,0.0011688 0.84476,0.0015125 1.6895,0.0048812 2.534254,0.0083256 0.571202,0.001375 1.142405,0.0026125 1.713608,0.0037125 1.403487,0.0029563 2.806963,0.0075006 4.210443,0.01316564 0.736064,3.88034115 1.265898,7.78349105 1.789029,11.69727885 0.126096,0.941982 0.252479,1.883921 0.379839,2.825734 0.0786,0.581255 0.15647,1.162607 0.233532,1.744067 0.03521,0.2605 0.07042,0.520997 0.106697,0.789389 0.03054,0.228707 0.06108,0.457413 0.09254,0.693049 0.09082,0.634396 0.09082,0.634396 0.368827,1.397613 0.779223,-1.891977 1.480498,-3.801248 2.142404,-5.736976 0.199526,-0.57869 0.399068,-1.157373 0.598629,-1.736051 C 33.294774,10.81795 33.603451,9.9192084 33.911723,9.0203243 34.21275,8.1433842 34.51507,7.2668953 34.81751,6.3904396 34.952598,5.9946156 34.952598,5.9946156 35.090417,5.5907957 35.740938,3.7081276 36.480548,1.872983 37.265823,0.04247407 46.180367,-0.00214468 55.087527,0.1235867 64,0.31215217 63.674116,1.3668213 63.347748,2.4213399 63.020965,3.475732 62.910342,3.8328931 62.799843,4.190092 62.689477,4.5473329 62.52891,5.066999 62.367868,5.5865166 62.206752,6.1060131 c -0.09616,0.3106957 -0.192326,0.6213922 -0.291405,0.9415022 -0.460406,1.445293 -0.945636,2.8825962 -1.425896,4.3214307 -5.079493,0 -10.158987,0 -15.392405,0 -0.267341,0.978931 -0.534683,1.957861 -0.810126,2.966458 -0.207479,0.637308 -0.422681,1.272194 -0.64768,1.903546 -0.06137,0.173329 -0.122732,0.346658 -0.185959,0.525237 -0.204995,0.578464 -0.411434,1.156404 -0.617838,1.734369 -0.311999,0.878747 -0.623247,1.757758 -0.9346,2.636733 -0.0853,0.240472 -0.170602,0.480944 -0.258487,0.728701 -0.712555,2.010588 -1.41801,4.023621 -2.121551,6.037366 -0.189859,0.543418 -0.379793,1.086806 -0.569749,1.630188 -0.760501,2.175545 -0.760501,2.175545 -1.520067,4.351418 -0.242803,0.695998 -0.485906,1.39189 -0.729338,2.08767 -0.223193,0.637931 -0.44598,1.276007 -0.668266,1.914254 -0.720478,2.056802 -1.49396,4.079042 -2.278111,6.115086 -3.921012,0 -7.842025,0 -11.881856,0 -0.267342,-1.868866 -0.534684,-3.737732 -0.810127,-5.663233 -0.195444,-1.184536 -0.195444,-1.184536 -0.396624,-2.36811 -0.236077,-1.428403 -0.442534,-2.861299 -0.653283,-4.293632 -0.181115,-1.218533 -0.380638,-2.427975 -0.620979,-3.63657 -0.241505,-1.259712 -0.261462,-2.444051 -0.219409,-3.724926 -0.178228,0 -0.356456,0 -0.540085,0 -0.03405,0.190596 -0.0681,0.381191 -0.10319,0.577564 -0.17301,0.799274 -0.409285,1.543946 -0.676148,2.316931 -0.104622,0.304344 -0.209244,0.608688 -0.317036,0.922256 -0.170032,0.490073 -0.170032,0.490073 -0.343499,0.990046 -0.118172,0.342276 -0.236286,0.68457 -0.354344,1.026885 -0.247562,0.717187 -0.495731,1.434161 -0.744351,2.150983 -0.316068,0.911404 -0.63078,1.823268 -0.945046,2.735292 -0.243929,0.707485 -0.48852,1.414742 -0.733308,2.121935 -0.172016,0.497256 -0.343548,0.994676 -0.515067,1.492102 -0.107176,0.308593 -0.214351,0.61719 -0.324775,0.935139 -0.09273,0.267808 -0.185464,0.535616 -0.281007,0.811545 -0.44418,1.212111 -0.933271,2.407399 -1.413283,3.605807 -3.921013,0 -7.842026,0 -11.881857,0 0.9116344,-3.034681 0.9116344,-3.034681 1.3250263,-4.233337 0.09343,-0.271671 0.1868597,-0.543339 0.2831209,-0.823246 0.099375,-0.2871 0.1987494,-0.574208 0.3011356,-0.870011 0.1593419,-0.462164 0.1593419,-0.462164 0.321903,-0.933673 C 2.5185153,36.307022 2.8063776,35.47451 3.0945866,34.642117 3.2757347,34.11878 3.4566743,33.595371 3.6375594,33.071943 5.443153,27.848011 7.274271,22.633481 9.129879,17.427035 c 0.979678,-2.750084 1.950944,-5.502799 2.908096,-8.2607953 0.100857,-0.290519 0.201713,-0.5810387 0.305627,-0.8803618 0.48541,-1.3990747 0.969671,-2.7985351 1.452548,-4.1984832 0.172013,-0.4967856 0.344041,-0.9935656 0.516086,-1.4903394 0.07852,-0.228811 0.157048,-0.457622 0.237952,-0.6933665 C 15.19128,0.05597796 15.19128,0.05597796 15.87596,0.01005912 Z"
     fill="#fdb32d"
     id="path1"
     style="stroke-width:0.26986" />
  <path
     d="m 38.728663,0.00505137 c 0.211378,5.3489e-4 0.422754,0.0011 0.640535,0.00165 0.223279,-3.5611e-4 0.446555,-6.875e-4 0.676598,-0.0011 0.749864,-5.2592e-4 1.499701,0.0012375 2.249563,0.0031625 0.256713,2.3925e-4 0.513428,4.785e-4 0.777921,7.5625e-4 C 50.049969,0.01704138 57.025126,0.16461328 64,0.3121838 c -0.325884,1.0546691 -0.652252,2.1091877 -0.979035,3.1635798 -0.110623,0.3571611 -0.221122,0.7143601 -0.331488,1.0716008 -0.160567,0.5196662 -0.321609,1.039184 -0.482725,1.5586803 -0.09616,0.3106958 -0.192326,0.6213921 -0.291405,0.9415021 -0.460406,1.4452933 -0.945636,2.8825965 -1.425896,4.3214312 -5.079493,0 -10.158987,0 -15.392405,0 -0.267341,0.978931 -0.534683,1.957861 -0.810126,2.966457 -0.207479,0.637309 -0.422681,1.272194 -0.64768,1.903546 -0.06137,0.173329 -0.122732,0.346658 -0.185959,0.525237 -0.204995,0.578464 -0.411434,1.156404 -0.617838,1.734369 -0.311999,0.878747 -0.623247,1.757759 -0.9346,2.636733 -0.0853,0.240472 -0.170602,0.480944 -0.258487,0.728704 -0.712555,2.010586 -1.41801,4.023619 -2.121551,6.037363 -0.189859,0.543418 -0.379793,1.086808 -0.569749,1.630189 -0.760501,2.175545 -0.760501,2.175545 -1.520067,4.351417 -0.242803,0.695998 -0.485906,1.391891 -0.729338,2.087671 -0.223193,0.637926 -0.44598,1.276002 -0.668266,1.914249 -0.720478,2.056802 -1.49396,4.079042 -2.278111,6.115087 -3.831898,0 -7.663797,0 -11.611814,0 0.303791,-2.427055 0.303791,-2.427055 0.674974,-3.457946 0.123625,-0.348509 0.123625,-0.348509 0.249748,-0.704064 0.08959,-0.245456 0.179177,-0.490915 0.271481,-0.743805 0.09343,-0.261497 0.186856,-0.522987 0.283116,-0.792406 0.303739,-0.848677 0.610528,-1.69622 0.917305,-2.543805 0.211834,-0.590563 0.423441,-1.181209 0.634824,-1.771934 0.516755,-1.442959 1.035663,-2.885133 1.555297,-4.32706 0.606793,-1.685065 1.209138,-3.371702 1.809879,-5.05893 0.114155,-0.320256 0.22831,-0.640512 0.345927,-0.970472 1.094057,-3.082181 2.147438,-6.177983 3.202052,-9.273792 1.08338,-3.179254 2.175717,-6.3550915 3.29189,-9.5230326 0.142556,-0.404649 0.284849,-0.8093897 0.42687,-1.2142257 0.194716,-0.5546275 0.390481,-1.1088729 0.586637,-1.6629945 0.110282,-0.3123472 0.220565,-0.6246943 0.33419,-0.9465061 0.446826,-1.16125581 0.802525,-0.99867854 2.001013,-1.00395923 z"
     fill="#feb42d"
     id="path2"
     style="stroke-width:0.26986" />
  <path
     d="m 27.004219,0.3121673 c 0.716528,0.7155611 0.683928,1.1851085 0.815927,2.1840221 0.04687,0.3456819 0.09375,0.6913631 0.142045,1.0475206 0.04917,0.3793603 0.09834,0.7587208 0.147514,1.138082 0.05218,0.3883915 0.104606,0.77675 0.157272,1.1650761 0.138427,1.024147 0.274385,2.0486034 0.409562,3.0731818 0.215923,1.6361631 0.434001,3.2720251 0.655034,4.9075061 0.07646,0.570148 0.150907,1.140532 0.225223,1.710962 0.04687,0.349081 0.09375,0.698162 0.142045,1.057823 0.04035,0.306182 0.08069,0.612363 0.122261,0.927824 0.133363,0.870195 0.133363,0.870195 0.453415,1.725991 0.333232,1.038176 0.06586,1.501882 -0.356796,2.498245 -0.155747,0.383566 -0.310262,0.767631 -0.463871,1.152056 -0.08845,0.219579 -0.176901,0.439157 -0.26803,0.665388 -0.589926,1.514092 -1.115876,3.051605 -1.652064,4.585299 -0.122969,0.350504 -0.245987,0.700992 -0.369051,1.051463 -0.252319,0.718867 -0.504276,1.43786 -0.75595,2.156954 -0.319938,0.913992 -0.640921,1.827616 -0.962185,2.741145 -0.251626,0.715962 -0.502625,1.432144 -0.753453,2.148387 -0.174301,0.49732 -0.349166,0.994445 -0.524052,1.491562 -0.724112,2.072539 -1.394053,4.156833 -2.025605,6.259331 -0.08911,0 -0.178228,0 -0.270042,0 -0.02171,-0.154605 -0.04343,-0.309216 -0.0658,-0.468511 -0.531284,-3.78743 -0.531284,-3.78743 -1.140954,-7.562832 -0.236074,-1.428417 -0.442531,-2.861313 -0.65328,-4.293646 -0.181115,-1.218533 -0.380638,-2.427975 -0.620979,-3.63657 -0.241505,-1.259712 -0.261462,-2.444051 -0.219409,-3.724926 -0.178228,-0.08899 -0.356456,-0.177988 -0.540085,-0.269678 0.15769,-0.423416 0.15769,-0.423416 0.318566,-0.855385 2.04534,-5.508364 4.030096,-11.03531 5.87533,-16.613963 0.694748,-2.0993303 1.413074,-4.1871897 2.177412,-6.2623077 z"
     fill="#fa8713"
     id="path3"
     style="stroke-width:0.26986" />
  <path
     d="m 44.363663,15.381701 c 0.272845,5.97e-4 0.545691,0.0011 0.826805,0.0017 0.46222,3.1e-5 0.46222,3.1e-5 0.933778,6.3e-5 0.335296,0.0014 0.670593,0.0028 1.01605,0.0042 0.511903,5.73e-4 0.511903,5.73e-4 1.034146,0.0011 0.908765,0.0012 1.817511,0.0037 2.72627,0.0067 0.926731,0.0028 1.853462,0.0039 2.780195,0.0054 1.81945,0.0029 3.638892,0.0075 5.458334,0.01316 -0.325958,1.054646 -0.652252,2.109188 -0.979036,3.16358 -0.110623,0.357161 -0.221121,0.71436 -0.331487,1.071601 -0.160567,0.519666 -0.32161,1.039184 -0.482728,1.558681 -0.09616,0.310695 -0.192324,0.621391 -0.291402,0.941502 -0.460406,1.445292 -0.945637,2.882595 -1.425896,4.321431 -5.168608,0 -10.337215,0 -15.662447,0 0.245225,-1.224468 0.589599,-2.359775 0.99578,-3.535309 0.07091,-0.206955 0.141808,-0.413911 0.214859,-0.627137 0.14939,-0.435316 0.29921,-0.870483 0.449434,-1.305512 0.230592,-0.668286 0.459399,-1.337165 0.688027,-2.006124 0.145464,-0.423164 0.29103,-0.846292 0.43671,-1.269382 0.102962,-0.301258 0.102962,-0.301258 0.208003,-0.608603 0.587239,-1.694185 0.587239,-1.694185 1.404605,-1.737157 z"
     fill="#075b9c"
     id="path4"
     style="stroke-width:0.26986" />
  <path
     d="m 48.877637,0.3121673 c 4.99038,0 9.98076,0 15.122363,0 -0.568101,1.8354953 -0.568101,1.8354953 -1.147679,3.7080709 -0.11705,0.3788318 -0.234097,0.7576636 -0.354695,1.1479747 -0.09599,0.3094795 -0.191976,0.6189582 -0.290876,0.9378153 -0.144243,0.4660439 -0.144243,0.4660439 -0.291403,0.9415022 -0.460406,1.4452926 -0.945636,2.8825949 -1.425896,4.3214306 -5.079493,0 -10.158987,0 -15.392405,0 0.423292,-1.273722 0.846583,-2.5474442 1.282701,-3.8597649 0.131146,-0.3953662 0.262295,-0.7907318 0.397416,-1.1980783 0.106952,-0.3211032 0.213908,-0.6422063 0.324101,-0.9730394 0.107477,-0.3234064 0.214954,-0.6468119 0.325688,-0.9800185 0.465131,-1.3550804 0.960483,-2.6996547 1.450685,-4.0458926 z"
     fill="#5cc7f6"
     id="path5"
     style="stroke-width:0.26986" />
</svg>
